<svg width="36" height="30" viewBox="0 0 36 30" fill="none" xmlns="http://www.w3.org/2000/svg">
<g clip-path="url(#clip0_108_13602)">
<path d="M4.31727 19.5259C4.69183 19.8303 4.74087 20.0515 4.54523 20.555C4.13594 21.6089 3.66381 22.8579 3.26533 24.1352C3.15916 24.4753 3.15155 25.1397 3.38122 25.4064C3.56915 25.6248 3.88797 25.6547 4.19629 25.6836C4.28745 25.6921 4.37351 25.7002 4.45457 25.7129C4.46767 25.715 4.48087 25.716 4.49409 25.716C4.60623 25.7033 4.71423 25.6591 4.80911 25.5872L4.84914 25.5623C5.18705 25.355 5.52528 25.1483 5.86385 24.9423C6.83023 24.353 7.82942 23.7433 8.8024 23.1214L8.81151 23.1157C9.98233 22.3679 11.0872 21.6611 12.4441 21.9718C12.5007 21.9824 12.5582 21.9852 12.6154 21.9796C12.6335 21.9785 12.6518 21.9776 12.6697 21.9773C15.8932 21.9426 18.377 21.1489 20.4866 19.4799C23.7176 16.9233 25.1683 13.2647 24.4668 9.4421C23.8173 5.90288 22.5367 3.7007 20.3148 2.30198C18.0558 0.880245 15.5102 0.0633175 13.1471 0.00170898C13.1462 0.00188626 13.1453 0.00188626 13.1445 0.00170898C10.2276 0.0153602 7.7907 0.585412 5.47568 1.79609C2.66932 3.26342 1.13054 5.37152 0.771592 8.24077C0.616861 9.40796 0.598405 10.5948 0.71675 11.768C1.10532 15.3355 2.28315 17.8731 4.31727 19.5259ZM5.30526 22.4105C5.5004 21.5848 5.68453 20.8049 5.91419 20.0577C6.27444 18.8867 5.74277 18.2287 5.23971 17.7863C4.47458 17.1137 3.70064 16.3394 3.2217 15.2388C1.98484 12.3963 1.81652 9.73362 2.70674 7.09846C3.18958 5.66936 4.16977 4.60827 5.7914 3.75904C8.02966 2.58694 10.2574 2.00093 12.4599 2.00093C14.6527 2.01252 16.818 2.58179 18.8098 3.67024C21.1094 4.8992 22.3847 6.92615 22.8233 10.0493C23.1836 12.6123 22.5849 14.747 20.9402 16.767C19.4756 18.5657 17.5009 19.6242 14.7259 20.098C13.3272 20.3368 11.6729 20.5347 10.0078 20.1913C9.8 20.1494 9.56754 20.3038 9.37951 20.4287C8.25242 21.1801 7.13594 21.9337 5.95401 22.7316L5.08951 23.3149C5.16496 23.0044 5.23601 22.7037 5.30526 22.4106V22.4105Z" fill="white"/>
<path d="M6.95886 13.9281H6.9777C7.19042 13.9274 7.40085 13.8794 7.59667 13.7871C7.79247 13.6947 7.96972 13.5601 8.11801 13.3908C8.24541 13.2449 8.34485 13.0717 8.41033 12.882C8.47581 12.6922 8.50598 12.4897 8.49902 12.2866C8.475 11.8727 8.31407 11.4833 8.04712 11.1931C7.78019 10.9029 7.42606 10.7324 7.05279 10.7144C6.85448 10.7157 6.65839 10.7609 6.47589 10.847C6.29338 10.9332 6.1281 11.0586 5.9896 11.2161C5.83862 11.3763 5.71764 11.568 5.63363 11.7802C5.54961 11.9925 5.5042 12.2211 5.50003 12.4529C5.4989 12.6412 5.53168 12.8279 5.59644 13.002C5.66119 13.1761 5.75661 13.3339 5.8771 13.4666C6.16848 13.7733 6.55748 13.9392 6.95886 13.9281Z" fill="white"/>
<path d="M13.0011 13.9286H13.0153C13.401 13.9255 13.7699 13.7687 14.0416 13.4924C14.3274 13.2119 14.4921 12.8289 14.5 12.4266C14.5032 12.0249 14.2829 11.55 13.9251 11.1877C13.6825 10.9129 13.3441 10.7434 12.9805 10.7144H12.9759C12.2419 10.7187 11.5109 11.5312 11.5003 12.3546C11.4966 12.5605 11.5335 12.7651 11.609 12.9563C11.6843 13.1477 11.7966 13.322 11.9394 13.469C12.0774 13.6127 12.2423 13.7274 12.4245 13.8063C12.6068 13.8852 12.8027 13.9268 13.0011 13.9286Z" fill="white"/>
<path d="M19.0216 13.9286H19.0312C19.4046 13.9136 19.7601 13.7557 20.0305 13.485C20.301 13.2141 20.4679 12.8489 20.5 12.4581C20.4898 12.0718 20.3354 11.7051 20.07 11.4373C19.7129 11.0199 19.2174 10.7613 18.6849 10.7146C18.5498 10.7118 18.4157 10.7379 18.2905 10.7913C18.1654 10.8447 18.0521 10.9242 17.9572 11.025C17.8078 11.1862 17.6904 11.377 17.612 11.5862C17.5336 11.7955 17.4956 12.019 17.5004 12.2438C17.4913 12.6785 17.646 13.0991 17.9309 13.4146C18.2156 13.73 18.6077 13.9149 19.0216 13.9286Z" fill="white"/>
</g>
<defs>
<clipPath id="clip0_108_13602">
<rect width="35" height="30" fill="white" transform="translate(0.5)"/>
</clipPath>
</defs>
</svg>
